<?xml version="1.0" standalone="no"?>
<!DOCTYPE svg PUBLIC "-//W3C//DTD SVG 20010904//EN"
 "http://www.w3.org/TR/2001/REC-SVG-20010904/DTD/svg10.dtd">
<svg version="1.0" xmlns="http://www.w3.org/2000/svg"
 width="260.000000pt" height="260.000000pt" viewBox="0 0 260.000000 260.000000"
 preserveAspectRatio="xMidYMid meet">
<metadata>
Created by potrace 1.14, written by Peter Selinger 2001-2017
</metadata>
<g transform="translate(0.000000,260.000000) scale(0.100000,-0.100000)"
fill="#000000" stroke="none">
<path d="M0 2269 l0 -332 26 39 c42 61 74 97 105 117 34 22 35 30 9 66 -17 25
-18 30 -4 49 8 12 19 22 24 22 5 0 80 -68 167 -152 87 -83 197 -189 245 -235
102 -98 105 -110 36 -181 -155 -161 -219 -286 -258 -507 -11 -60 -22 -122 -26
-137 l-5 -27 76 40 c55 28 88 39 121 39 42 0 57 11 33 26 -8 4 -10 27 -6 65 9
101 87 240 206 369 28 30 48 46 44 35 -6 -17 -4 -18 9 -8 18 15 54 -7 165 -98
73 -61 246 -202 303 -248 19 -15 73 -57 120 -92 47 -35 137 -109 200 -164 225
-197 423 -365 430 -365 4 0 7 -13 5 -30 -3 -37 -29 -59 -132 -108 -66 -31 -88
-37 -140 -36 -63 2 -142 30 -204 75 -39 28 -45 20 -21 -28 22 -42 96 -116 158
-156 94 -61 292 -49 414 26 19 12 59 41 88 65 l52 42 9 -23 c5 -13 7 -52 4
-87 -5 -49 -2 -70 12 -96 22 -40 35 -44 35 -9 0 23 2 25 22 14 12 -6 45 -13
72 -15 52 -4 76 -21 76 -54 0 -8 7 -25 15 -37 14 -20 13 -23 -18 -42 -17 -11
-48 -36 -66 -55 l-35 -36 117 0 117 0 0 555 c0 305 -3 555 -7 555 -5 0 -35
-18 -68 -40 -33 -22 -63 -40 -66 -40 -14 0 -31 60 -24 82 4 13 42 56 84 95
l76 72 -32 1 c-55 0 -138 -37 -178 -81 -61 -68 -67 -111 -22 -186 13 -22 16
-37 10 -41 -6 -4 -21 -27 -33 -52 -33 -65 -61 -100 -81 -100 -10 0 -21 -4 -24
-10 -3 -5 -14 -10 -23 -10 -38 0 -522 381 -808 636 -61 55 -160 142 -220 195
-60 52 -118 112 -129 133 l-20 38 40 34 c70 59 161 99 226 99 49 0 64 -5 103
-32 l46 -33 -7 43 c-12 64 -7 175 11 243 9 34 16 64 16 67 0 5 -249 -96 -330
-134 -25 -11 -86 -45 -136 -75 -50 -30 -102 -54 -117 -54 -15 0 -32 -9 -41
-22 -15 -21 -17 -19 -131 88 -64 60 -184 166 -268 236 -83 70 -155 135 -160
144 -6 11 -3 20 10 30 33 27 137 73 204 91 64 16 69 16 128 -2 39 -12 70 -28
82 -44 11 -13 29 -31 41 -39 20 -15 21 -14 14 11 l-6 26 42 -15 c50 -18 159
-30 183 -20 14 5 15 9 5 20 -9 12 -6 21 16 45 23 27 34 31 76 31 54 0 60 9 22
39 -26 21 -36 21 -565 21 l-539 0 0 -331z m325 71 c10 -11 16 -20 13 -20 -3 0
-13 9 -23 20 -10 11 -16 20 -13 20 3 0 13 -9 23 -20z m56 -47 c13 -16 12 -17
-3 -4 -10 7 -18 15 -18 17 0 8 8 3 21 -13z m-161 -79 c30 -31 123 -117 205
-192 212 -191 267 -244 261 -249 -5 -5 -272 237 -440 399 -56 54 -96 97 -91
98 6 0 35 -25 65 -56z m346 -76 l29 -33 -32 29 c-18 17 -33 31 -33 33 0 8 8 1
36 -29z m354 -597 c86 -73 342 -277 490 -391 74 -57 164 -132 200 -165 36 -34
148 -133 250 -220 102 -87 187 -163 189 -168 6 -17 -57 32 -168 128 -395 343
-457 395 -576 485 -60 45 -171 133 -245 194 -74 62 -156 127 -182 146 -27 18
-48 34 -48 35 0 1 8 2 18 2 9 0 42 -21 72 -46z m1670 -1362 c0 -20 -33 -22
-46 -4 -25 34 -18 47 16 30 17 -9 30 -20 30 -26z"/>
<path d="M2300 2591 c0 -9 79 -116 163 -221 25 -30 43 -60 40 -66 -2 -7 5 -15
15 -19 11 -3 32 -15 46 -26 l27 -21 -64 -68 c-79 -83 -112 -149 -132 -264 -15
-90 -21 -267 -8 -279 3 -4 24 24 45 62 46 83 77 111 128 111 l37 0 2 400 2
400 -150 0 c-85 0 -151 -4 -151 -9z"/>
<path d="M0 944 c0 -8 5 -12 10 -9 6 3 10 10 10 16 0 5 -4 9 -10 9 -5 0 -10
-7 -10 -16z"/>
<path d="M0 456 l0 -456 446 0 447 0 -7 47 c-13 95 -109 262 -185 320 -61 46
-193 108 -259 122 -29 6 -89 11 -134 11 -73 0 -79 2 -72 18 4 9 9 33 12 53 3
28 -1 40 -15 50 -13 9 -19 26 -19 50 0 26 -10 50 -38 87 -21 29 -42 52 -46 52
-5 0 -13 -19 -17 -42 -13 -67 -31 -59 -27 12 3 57 2 61 -16 55 -15 -5 -22 1
-34 28 -34 82 -36 59 -36 -407z"/>
</g>
</svg>
